<svg width="49" height="161" viewBox="0 0 49 161" fill="none" xmlns="http://www.w3.org/2000/svg">
<path d="M40.6181 106.894C40.1326 108.014 39.0808 110.575 37.6784 113.38C37.0042 114.796 36.276 116.293 35.5074 117.722C34.7523 119.152 34.0645 120.567 33.3768 121.754C27.3627 132.946 19.8652 143.276 11.0732 152.203C9.68428 153.578 7.48627 156.073 5.2613 153.996C2.94194 151.825 2.96892 148.98 5.19389 146.58C10.5338 140.7 15.9546 134.713 19.8113 127.782C25.4478 117.709 31.0035 107.676 34.577 96.848C36.1547 91.9935 37.4357 87.0582 38.4336 82.0824C39.3775 77.0795 39.8899 72.0634 39.9708 67.0201C39.9169 57.5269 38.056 48.1685 35.2242 39.2955C32.8509 31.6363 30.0326 23.9364 25.3939 17.275C24.841 16.4929 24.1129 15.7378 23.3712 14.9557C22.5891 14.214 21.753 13.5129 21.0923 12.7173C20.054 11.3419 17.9639 9.42712 16.939 8.0382C16.5075 7.41791 15.9816 6.86484 15.3613 6.48727C12.5026 4.82865 12.4621 3.35904 15.4422 1.30937C16.1165 0.864375 16.4805 -0.133437 17.4784 0.0148946C17.5189 0.0148946 17.5998 0.0283924 17.6402 0.0283924C19.3393 0.041877 20.6068 0.715978 21.6991 1.579C22.7239 2.52292 23.5735 3.66913 24.6118 4.62654C34.577 14.2816 41.2653 26.8492 44.9736 39.9968C47.2256 48.1145 48.183 56.4884 48.6145 64.8624C48.7898 67.1548 49.0865 69.4879 48.6954 71.8072V71.7667C48.7089 72.9938 48.628 74.2074 48.5605 75.4345C48.4796 76.6616 48.4257 77.8887 48.2369 79.1023C46.8615 88.2044 44.4882 97.5897 41.0091 105.654C40.8743 105.937 40.8204 106.422 40.6181 106.894Z" fill="black"/>
<path d="M13.8492 147.618C14.5505 147.295 17.0721 146.256 18.6228 145.474C22.2232 143.654 25.8776 141.914 29.9364 141.065C30.5702 140.93 31.5411 140.485 32.8356 143.249C34.1841 146.122 34.3324 148.104 33.2806 148.468C30.759 149.344 28.0351 149.843 25.8776 151.475C22.7356 153.862 19.0543 155.143 15.6427 156.95L14.4561 157.556L12.3525 158.581C10.95 159.296 9.49371 159.903 8.22615 160.119C6.95859 160.348 5.78542 160.334 4.65271 160.024C3.53348 159.755 2.34684 158.959 1.57821 158.002L1.49731 157.894C0.823073 156.977 0.445501 156.1 0.189292 154.981C-0.080401 153.875 -0.0534362 152.392 0.216257 150.855L0.553374 148.535L0.72867 147.349L0.809585 146.661C0.903978 145.852 1.03883 145.043 1.20064 144.247C1.78048 141.496 3.11546 138.894 3.95151 136.197C4.15378 135.563 3.74924 134.673 3.93803 133.972C4.09984 133.392 4.31559 132.421 4.69316 131.882C4.85498 131.652 5.05725 131.423 4.98983 131.154C4.70665 129.913 5.85285 129.832 9.19705 130.911C9.92522 131.14 10.9366 131.248 11.395 131.625C11.4085 131.639 11.449 131.666 11.4759 131.693C13.3773 132.947 12.2446 133.594 12.1232 134.471C11.5029 138.732 10.6804 142.953 9.9387 147.187L9.5881 149.021C9.56113 149.156 9.53416 149.277 9.53416 149.398C9.52068 149.641 9.52068 149.884 9.7634 149.87C9.81734 149.87 9.9387 149.803 10.0466 149.722C10.2219 149.614 10.3432 149.479 10.2084 149.709C10.3837 149.587 10.5455 149.29 10.5455 149.304C10.5725 149.317 10.6129 149.223 10.5995 149.196V149.183L11.5703 148.724C12.2176 148.427 12.8783 148.158 13.5391 147.915C13.6335 147.875 13.7009 147.686 13.8492 147.618Z" fill="black"/>
</svg>
