<svg width="48" height="48" viewBox="0 0 48 48" fill="none" xmlns="http://www.w3.org/2000/svg">
<path d="M32.6352 13.7012C37.8028 16.5217 41.28 21.7978 41.28 27.8401C41.28 36.8535 33.5433 44.1601 24 44.1601C14.4566 44.1601 6.71997 36.8535 6.71997 27.8401" stroke="black" stroke-width="2" stroke-miterlimit="10" stroke-linecap="round"/>
<path d="M34.56 28.8C35.0902 28.8 35.52 28.3702 35.52 27.84C35.52 27.3098 35.0902 26.88 34.56 26.88C34.0298 26.88 33.6 27.3098 33.6 27.84C33.6 28.3702 34.0298 28.8 34.56 28.8Z" fill="black"/>
<path d="M36.48 31.68C37.0102 31.68 37.44 31.2502 37.44 30.72C37.44 30.1898 37.0102 29.76 36.48 29.76C35.9498 29.76 35.52 30.1898 35.52 30.72C35.52 31.2502 35.9498 31.68 36.48 31.68Z" fill="black"/>
<path d="M32.6401 31.68C33.1702 31.68 33.6001 31.2502 33.6001 30.72C33.6001 30.1898 33.1702 29.76 32.6401 29.76C32.1099 29.76 31.6801 30.1898 31.6801 30.72C31.6801 31.2502 32.1099 31.68 32.6401 31.68Z" fill="black"/>
<path d="M34.56 34.56C35.0902 34.56 35.52 34.1302 35.52 33.6C35.52 33.0698 35.0902 32.64 34.56 32.64C34.0298 32.64 33.6 33.0698 33.6 33.6C33.6 34.1302 34.0298 34.56 34.56 34.56Z" fill="black"/>
<path d="M30.72 34.56C31.2502 34.56 31.68 34.1302 31.68 33.6C31.68 33.0698 31.2502 32.64 30.72 32.64C30.1898 32.64 29.76 33.0698 29.76 33.6C29.76 34.1302 30.1898 34.56 30.72 34.56Z" fill="black"/>
<path d="M36.48 37.44C37.0102 37.44 37.44 37.0102 37.44 36.48C37.44 35.9498 37.0102 35.52 36.48 35.52C35.9498 35.52 35.52 35.9498 35.52 36.48C35.52 37.0102 35.9498 37.44 36.48 37.44Z" fill="black"/>
<path d="M36.48 25.92C37.0102 25.92 37.44 25.4902 37.44 24.96C37.44 24.4298 37.0102 24 36.48 24C35.9498 24 35.52 24.4298 35.52 24.96C35.52 25.4902 35.9498 25.92 36.48 25.92Z" fill="black"/>
<path d="M34.56 40.32C35.0902 40.32 35.52 39.8902 35.52 39.36C35.52 38.8298 35.0902 38.4 34.56 38.4C34.0298 38.4 33.6 38.8298 33.6 39.36C33.6 39.8902 34.0298 40.32 34.56 40.32Z" fill="black"/>
<path d="M40.32 31.68C40.8502 31.68 41.28 31.2502 41.28 30.72C41.28 30.1898 40.8502 29.76 40.32 29.76C39.7898 29.76 39.36 30.1898 39.36 30.72C39.36 31.2502 39.7898 31.68 40.32 31.68Z" fill="black"/>
<path d="M32.6401 37.44C33.1702 37.44 33.6001 37.0102 33.6001 36.48C33.6001 35.9498 33.1702 35.52 32.6401 35.52C32.1099 35.52 31.6801 35.9498 31.6801 36.48C31.6801 37.0102 32.1099 37.44 32.6401 37.44Z" fill="black"/>
<path d="M28.8 37.44C29.3302 37.44 29.76 37.0102 29.76 36.48C29.76 35.9498 29.3302 35.52 28.8 35.52C28.2698 35.52 27.84 35.9498 27.84 36.48C27.84 37.0102 28.2698 37.44 28.8 37.44Z" fill="black"/>
<path d="M30.72 40.32C31.2502 40.32 31.68 39.8902 31.68 39.36C31.68 38.8298 31.2502 38.4 30.72 38.4C30.1898 38.4 29.76 38.8298 29.76 39.36C29.76 39.8902 30.1898 40.32 30.72 40.32Z" fill="black"/>
<path d="M38.3999 28.8C38.9301 28.8 39.3599 28.3702 39.3599 27.84C39.3599 27.3098 38.9301 26.88 38.3999 26.88C37.8697 26.88 37.4399 27.3098 37.4399 27.84C37.4399 28.3702 37.8697 28.8 38.3999 28.8Z" fill="black"/>
<path d="M24.0624 15.3465C24.0624 15.3465 36.3811 16.2182 39.4224 3.83997C24.4886 3.83997 24.0624 15.3465 24.0624 15.3465Z" stroke="black" stroke-width="2" stroke-miterlimit="10" stroke-linecap="round" stroke-linejoin="round"/>
<path d="M21.12 8.64001C21.12 8.64001 24 11.1303 24 16.32" stroke="black" stroke-width="2" stroke-miterlimit="10"/>
<path d="M19.4803 11.0938C11.5565 13.0022 5.76001 19.8096 5.76001 27.84C5.76001 28.3699 6.18913 28.8 6.72001 28.8C7.25089 28.8 7.68001 28.3699 7.68001 27.84C7.68001 20.5277 13.1309 14.3712 20.4874 12.8534C20.1379 11.9789 19.7357 11.4019 19.4803 11.0938Z" fill="black"/>
<path d="M26.88 40.32C27.4102 40.32 27.84 39.8902 27.84 39.36C27.84 38.8298 27.4102 38.4 26.88 38.4C26.3499 38.4 25.92 38.8298 25.92 39.36C25.92 39.8902 26.3499 40.32 26.88 40.32Z" fill="black"/>
<path d="M24.96 37.44C25.4902 37.44 25.92 37.0102 25.92 36.48C25.92 35.9498 25.4902 35.52 24.96 35.52C24.4298 35.52 24 35.9498 24 36.48C24 37.0102 24.4298 37.44 24.96 37.44Z" fill="black"/>
<path d="M23.04 40.32C23.5701 40.32 24 39.8902 24 39.36C24 38.8298 23.5701 38.4 23.04 38.4C22.5098 38.4 22.08 38.8298 22.08 39.36C22.08 39.8902 22.5098 40.32 23.04 40.32Z" fill="black"/>
<path d="M38.3999 34.56C38.9301 34.56 39.3599 34.1302 39.3599 33.6C39.3599 33.0698 38.9301 32.64 38.3999 32.64C37.8697 32.64 37.4399 33.0698 37.4399 33.6C37.4399 34.1302 37.8697 34.56 38.3999 34.56Z" fill="black"/>
<path d="M32.6401 25.92C33.1702 25.92 33.6001 25.4902 33.6001 24.96C33.6001 24.4298 33.1702 24 32.6401 24C32.1099 24 31.6801 24.4298 31.6801 24.96C31.6801 25.4902 32.1099 25.92 32.6401 25.92Z" fill="black"/>
<path d="M34.56 23.04C35.0902 23.04 35.52 22.6102 35.52 22.08C35.52 21.5498 35.0902 21.12 34.56 21.12C34.0298 21.12 33.6 21.5498 33.6 22.08C33.6 22.6102 34.0298 23.04 34.56 23.04Z" fill="black"/>
<path d="M28.8 43.2C29.3302 43.2 29.76 42.7702 29.76 42.24C29.76 41.7098 29.3302 41.28 28.8 41.28C28.2698 41.28 27.84 41.7098 27.84 42.24C27.84 42.7702 28.2698 43.2 28.8 43.2Z" fill="black"/>
<path d="M24.96 43.2C25.4902 43.2 25.92 42.7702 25.92 42.24C25.92 41.7098 25.4902 41.28 24.96 41.28C24.4298 41.28 24 41.7098 24 42.24C24 42.7702 24.4298 43.2 24.96 43.2Z" fill="black"/>
<path d="M21.12 43.2C21.6502 43.2 22.08 42.7702 22.08 42.24C22.08 41.7098 21.6502 41.28 21.12 41.28C20.5898 41.28 20.16 41.7098 20.16 42.24C20.16 42.7702 20.5898 43.2 21.12 43.2Z" fill="black"/>
<path d="M38.3999 23.04C38.9301 23.04 39.3599 22.6102 39.3599 22.08C39.3599 21.5498 38.9301 21.12 38.3999 21.12C37.8697 21.12 37.4399 21.5498 37.4399 22.08C37.4399 22.6102 37.8697 23.04 38.3999 23.04Z" fill="black"/>
<path d="M40.32 25.92C40.8502 25.92 41.28 25.4902 41.28 24.96C41.28 24.4298 40.8502 24 40.32 24C39.7898 24 39.36 24.4298 39.36 24.96C39.36 25.4902 39.7898 25.92 40.32 25.92Z" fill="black"/>
<path d="M36.48 20.16C37.0102 20.16 37.44 19.7302 37.44 19.2C37.44 18.6698 37.0102 18.24 36.48 18.24C35.9498 18.24 35.52 18.6698 35.52 19.2C35.52 19.7302 35.9498 20.16 36.48 20.16Z" fill="black"/>
<path d="M19.2 40.32C19.7302 40.32 20.16 39.8902 20.16 39.36C20.16 38.8298 19.7302 38.4 19.2 38.4C18.6698 38.4 18.24 38.8298 18.24 39.36C18.24 39.8902 18.6698 40.32 19.2 40.32Z" fill="black"/>
<path d="M32.6401 20.16C33.1702 20.16 33.6001 19.7302 33.6001 19.2C33.6001 18.6698 33.1702 18.24 32.6401 18.24C32.1099 18.24 31.6801 18.6698 31.6801 19.2C31.6801 19.7302 32.1099 20.16 32.6401 20.16Z" fill="black"/>
<path d="M17.2799 43.2C17.8101 43.2 18.2399 42.7702 18.2399 42.24C18.2399 41.7098 17.8101 41.28 17.2799 41.28C16.7498 41.28 16.3199 41.7098 16.3199 42.24C16.3199 42.7702 16.7498 43.2 17.2799 43.2Z" fill="black"/>
<path d="M34.56 17.28C35.0902 17.28 35.52 16.8502 35.52 16.32C35.52 15.7898 35.0902 15.36 34.56 15.36C34.0298 15.36 33.6 15.7898 33.6 16.32C33.6 16.8502 34.0298 17.28 34.56 17.28Z" fill="black"/>
</svg>
