<svg width="48" height="48" viewBox="0 0 48 48" fill="none" xmlns="http://www.w3.org/2000/svg">
<path d="M24 45.1968C35.7067 45.1968 45.1968 35.7067 45.1968 24C45.1968 12.2934 35.7067 2.80322 24 2.80322C12.2934 2.80322 2.80322 12.2934 2.80322 24C2.80322 35.7067 12.2934 45.1968 24 45.1968Z" stroke="black" stroke-width="2" stroke-miterlimit="10" stroke-linecap="round"/>
<path d="M24 45.1968C29.8533 45.1968 34.5984 35.7067 34.5984 24C34.5984 12.2934 29.8533 2.80322 24 2.80322C18.1467 2.80322 13.4016 12.2934 13.4016 24C13.4016 35.7067 18.1467 45.1968 24 45.1968Z" stroke="black" stroke-width="2" stroke-miterlimit="10" stroke-linecap="round"/>
<path d="M7.57251 37.4861C11.4586 35.1014 17.376 33.6 24 33.6C30.5357 33.6 36.3648 35.1014 40.3392 37.3977" stroke="black" stroke-width="2" stroke-miterlimit="10"/>
<path d="M40.4275 10.5139C36.5414 12.8986 30.624 14.4 24 14.4C17.4643 14.4 11.6352 12.8986 7.66077 10.6022" stroke="black" stroke-width="2" stroke-miterlimit="10"/>
<path d="M2.80322 24H45.1968" stroke="black" stroke-width="2" stroke-miterlimit="10"/>
<path d="M24 2.80322V45.1968" stroke="black" stroke-width="2" stroke-miterlimit="10"/>
</svg>
