<svg width="48" height="48" viewBox="0 0 48 48" fill="none" xmlns="http://www.w3.org/2000/svg">
<g clip-path="url(#clip0_842_1615)">
<path d="M25.92 36.3264V44.16H22.08V36.3264" stroke="black" stroke-width="2" stroke-miterlimit="10" stroke-linejoin="round"/>
<path d="M27.36 11.52H32.9097" stroke="black" stroke-width="2" stroke-miterlimit="10" stroke-linecap="round" stroke-linejoin="round"/>
<path d="M27.36 15.36H32.9097" stroke="black" stroke-width="2" stroke-miterlimit="10" stroke-linecap="round" stroke-linejoin="round"/>
<path d="M27.36 19.2H32.9097" stroke="black" stroke-width="2" stroke-miterlimit="10" stroke-linecap="round" stroke-linejoin="round"/>
<path d="M20.64 11.52H15.0912" stroke="black" stroke-width="2" stroke-miterlimit="10" stroke-linecap="round" stroke-linejoin="round"/>
<path d="M20.64 15.36H15.0912" stroke="black" stroke-width="2" stroke-miterlimit="10" stroke-linecap="round" stroke-linejoin="round"/>
<path d="M20.64 19.2H15.0912" stroke="black" stroke-width="2" stroke-miterlimit="10" stroke-linecap="round" stroke-linejoin="round"/>
<path d="M23.9999 0.960022C18.6978 0.960022 14.3999 5.14274 14.3999 10.3027V22.3363C14.3999 27.4973 18.6978 31.68 23.9999 31.68C29.302 31.68 33.5999 27.4973 33.5999 22.3373V10.3027C33.5999 5.14274 29.302 0.960022 23.9999 0.960022Z" stroke="black" stroke-width="2" stroke-miterlimit="10" stroke-linejoin="round"/>
<path d="M9.6001 17.28V22.08C9.6001 30.0202 16.0599 36.48 24.0001 36.48C31.9403 36.48 38.4001 30.0202 38.4001 22.08V17.28" stroke="black" stroke-width="2" stroke-miterlimit="10" stroke-linecap="round" stroke-linejoin="round"/>
<path d="M14.8646 44.16C13.5475 44.16 12.48 45.2199 12.48 46.5264C12.48 46.6724 12.48 46.9863 12.48 46.9863H35.4201C35.4201 46.9863 35.4201 46.6733 35.4201 46.5264C35.4201 45.2199 34.3536 44.16 33.0365 44.16C32.8877 44.16 15.0134 44.16 14.8646 44.16Z" stroke="black" stroke-width="2" stroke-miterlimit="10" stroke-linecap="round"/>
</g>
<defs>
<clipPath id="clip0_842_1615">
<rect width="48" height="48" fill="white"/>
</clipPath>
</defs>
</svg>
