<svg width="48" height="48" viewBox="0 0 48 48" fill="none" xmlns="http://www.w3.org/2000/svg">
<path d="M43 46V36H33" stroke="black" stroke-width="2" stroke-miterlimit="10" stroke-linecap="round"/>
<path d="M42.442 36C38.516 42.021 31.723 46 24 46C11.85 46 2 36.15 2 24C2 11.85 11.85 2 24 2C36.15 2 46 11.85 46 24" stroke="black" stroke-width="2" stroke-miterlimit="10" stroke-linecap="round"/>
<path d="M24 9V24H35" stroke="black" stroke-width="2" stroke-miterlimit="10" stroke-linecap="round"/>
<path d="M26.5 24C26.5 25.3807 25.3807 26.5 24 26.5C22.6193 26.5 21.5 25.3807 21.5 24C21.5 22.6193 22.6193 21.5 24 21.5C25.3807 21.5 26.5 22.6193 26.5 24Z" fill="black" stroke="black"/>
</svg>
