<svg width="418" height="89" viewBox="0 0 418 89" fill="none" xmlns="http://www.w3.org/2000/svg">
<path d="M164.016 76.9738C166.484 76.546 168.926 75.8534 171.407 75.7312C193.34 74.7127 215.339 74.2339 237.206 72.7163C254.335 71.5246 271.359 69.2941 288.357 67.1551C307.861 64.7005 327.485 62.5208 346.673 58.9865C364.172 55.7577 381.869 52.4475 397.798 45.4502C399.764 44.5844 401.704 43.6881 403.591 42.7307C413.858 37.4954 411.285 31.0481 403.789 26.2304C394.116 20.0174 382.186 17.4812 370.19 15.2608C347.386 11.0339 324.199 8.85426 300.841 7.51998C261.132 5.25883 221.436 4.96346 181.661 6.532C146.9 7.89683 112.496 11.2376 78.3825 16.3609C60.6329 19.0294 43.0415 22.4211 26.7699 28.7055C21.3724 30.7935 16.3312 33.7065 11.8311 36.8436C6.26209 40.7344 6.65799 45.715 11.8179 50.0132C20.4354 57.1939 31.8375 60.8708 43.0679 64.6597C63.9716 71.708 85.8387 76.5257 108.115 80.1109C120.876 82.1581 133.849 83.4007 146.702 85.0711C149.83 85.4786 152.905 86.1202 156.244 86.7008C140.883 91.1722 125.812 88.0656 110.886 86.2119C89.8505 83.5943 69.2504 79.4794 49.4684 73.2358C34.49 68.5098 19.7888 63.3153 7.55537 54.9124C-4.25575 46.7946 -1.15451 36.3037 9.52169 29.8157C25.0807 20.3535 43.8465 16.2692 62.8895 13.0812C73.1566 11.3599 83.4369 9.66909 93.7832 8.2737C104.103 6.88849 114.489 5.81903 124.875 4.80049C127.409 4.54586 130.061 5.01439 131.5 5.08568C134.68 4.56623 136.897 4.20975 139.101 3.83289C142.453 3.2727 146.227 3.32362 149.262 3.29307C153.749 3.24214 158.302 0.624511 163.238 3.00788C165.099 3.90419 168.741 2.46805 171.591 2.28471C178.876 1.806 186.174 1.39858 193.472 1.02173C201.297 0.624499 209.136 0.105047 216.975 0.00319324C221.686 -0.0579188 226.398 0.777285 231.122 0.868953C234.672 0.940251 238.235 0.247656 241.785 0.288397C247.579 0.349509 253.359 0.84858 259.152 0.930063C262.847 0.980989 266.833 -0.169949 270.198 0.55321C279.026 2.4375 287.921 1.37823 296.75 1.8162C307.532 2.34584 318.327 3.07918 329.042 4.16901C353.047 6.6033 377.184 8.85426 399.368 17.1044C403.657 18.7035 407.814 20.9137 411.179 23.5008C421.948 31.8018 419.638 42.8835 406.56 48.903C388.982 56.9902 369.741 61.543 349.92 64.5884C324.489 68.4996 298.874 71.7182 273.391 75.446C249.532 78.9396 225.474 80.6202 201.231 80.4979C190.041 80.4368 178.863 79.4386 167.672 78.797C166.471 78.7257 165.323 78.2062 164.148 77.8905C164.109 77.5849 164.069 77.2794 164.03 76.9738H164.016Z" fill="#9492F0"/>
</svg>
