<svg width="288" height="20" viewBox="0 0 288 20" fill="none" xmlns="http://www.w3.org/2000/svg">
<path d="M234.196 0C235.508 1.33227 236.394 2.22546 237.517 3.36092C240.712 0.681232 243.669 -2.14984 247.655 2.99759C248.493 4.08763 253.617 2.11945 256.511 1.61984C259.058 2.27084 261.825 3.48207 264.625 3.58805C272.374 3.8757 280.14 3.67888 287.905 3.67888C287.937 4.451 287.968 5.23821 288 6.01033C284.552 6.2677 281.12 6.66131 277.657 6.75215C243.448 7.66052 209.207 8.09959 175.014 9.5227C139.097 11.0064 103.212 13.2773 67.3265 15.4877C47.747 16.6988 28.199 18.5156 8.63519 19.9538C6.78478 20.0901 4.64977 19.9538 3.08404 19.1514C1.67646 18.4398 0 16.6534 0 15.3514C0 14.2008 2.05604 12.2024 3.38454 12.051C17.7608 10.4008 32.1371 8.65974 46.5766 7.7211C61.5855 6.75217 76.6418 6.66135 91.6823 6.13147C105.632 5.64701 119.597 5.19281 133.53 4.51154C144.87 3.96651 156.178 2.83101 167.518 2.4828C171.914 2.34655 176.327 4.0119 180.771 4.19357C182.954 4.28441 186.892 6.78245 187.35 1.75614C187.366 1.55933 188.489 1.16567 188.821 1.34734C192.886 3.48201 197.188 0.257356 200.873 1.49879C204.969 2.89163 208.416 2.28607 212.26 1.33228C213.525 1.01435 215.138 2.30114 216.577 2.30114C218.317 2.30114 220.025 1.52906 221.781 1.39281C223.267 1.27169 225.197 1.02946 226.193 1.77129C229.451 4.14819 231.792 3.51236 234.164 0H234.196Z" fill="#92F0CE"/>
</svg>
