<svg width="159" height="21" viewBox="0 0 159 21" fill="none" xmlns="http://www.w3.org/2000/svg">
<path d="M15.8506 7.88506V0.442529H21.4157V20.5575H15.8506V12.7931H5.56513V20.5575H0V0.442529H5.56513V7.88506H15.8506Z" fill="black"/>
<path d="M35.6839 21C33.3238 21 31.2407 20.5619 29.4349 19.6858C27.629 18.8097 26.2254 17.5805 25.2241 15.9981C24.2318 14.4068 23.7356 12.5741 23.7356 10.5C23.7356 8.42593 24.2318 6.5977 25.2241 5.01533C26.2254 3.42401 27.629 2.19029 29.4349 1.31418C31.2407 0.438059 33.3238 0 35.6839 0C38.0441 0 40.1271 0.438059 41.9329 1.31418C43.7388 2.19029 45.1379 3.42401 46.1303 5.01533C47.1315 6.5977 47.6322 8.42593 47.6322 10.5C47.6322 12.5741 47.1315 14.4068 46.1303 15.9981C45.1379 17.5805 43.7388 18.8097 41.9329 19.6858C40.1271 20.5619 38.0441 21 35.6839 21ZM35.6839 16.0249C36.9713 16.0249 38.0888 15.8014 39.0364 15.3544C39.993 14.9074 40.7261 14.2682 41.2356 13.4368C41.7541 12.6054 42.0134 11.6264 42.0134 10.5C42.0134 9.37356 41.7541 8.39464 41.2356 7.56322C40.7261 6.7318 39.993 6.09259 39.0364 5.64559C38.0888 5.1986 36.9713 4.9751 35.6839 4.9751C34.3965 4.9751 33.2746 5.1986 32.318 5.64559C31.3704 6.09259 30.6373 6.7318 30.1188 7.56322C29.6092 8.39464 29.3544 9.37356 29.3544 10.5C29.3544 11.6264 29.6092 12.6054 30.1188 13.4368C30.6373 14.2682 31.3704 14.9074 32.318 15.3544C33.2746 15.8014 34.3965 16.0249 35.6839 16.0249Z" fill="black"/>
<path d="M47.7816 0.442529H68.6877V5.39081H61.0172V20.5575H55.4521V5.39081H47.7816V0.442529Z" fill="black"/>
<path d="M80.5658 0.442529C82.9349 0.442529 85.0179 0.858238 86.8148 1.68966C88.6207 2.52107 90.0198 3.69668 91.0122 5.21648C92.0045 6.73627 92.5007 8.49745 92.5007 10.5C92.5007 12.5026 92.0045 14.2637 91.0122 15.7835C90.0198 17.3033 88.6207 18.4789 86.8148 19.3103C85.0179 20.1418 82.9349 20.5575 80.5658 20.5575H70.5217V0.442529H80.5658ZM80.9815 15.6092C82.1795 15.6092 83.221 15.4036 84.106 14.9923C85 14.5722 85.6839 13.9776 86.1577 13.2088C86.6405 12.44 86.8819 11.537 86.8819 10.5C86.8819 9.46296 86.6405 8.56003 86.1577 7.79119C85.6839 7.02235 85 6.43231 84.106 6.02107C83.221 5.60089 82.1795 5.39081 80.9815 5.39081H76.06V15.6092H80.9815Z" fill="black"/>
<path d="M100.48 12.5249L99.9168 16.0517H112.656V20.5575H93.9493L95.4781 10.5L93.9493 0.442529H112.522V4.94828H99.9168L100.48 8.4751H111.744V12.5249H100.48Z" fill="black"/>
<path d="M120.07 13.9598C120.196 14.8091 120.705 15.4796 121.599 15.9713C122.493 16.454 123.673 16.6954 125.139 16.6954C126.516 16.6954 127.589 16.5166 128.358 16.159C129.136 15.8014 129.525 15.2918 129.525 14.6303C129.525 14.2727 129.426 13.9776 129.229 13.7452C129.033 13.5038 128.698 13.3072 128.224 13.1552C127.759 13.0032 127.111 12.887 126.279 12.8065L122.551 12.4579C119.807 12.2075 117.8 11.5907 116.53 10.6073C115.27 9.61494 114.639 8.23819 114.639 6.47701C114.639 5.1092 115.042 3.94253 115.846 2.97701C116.651 2.00255 117.786 1.26501 119.252 0.764368C120.728 0.254789 122.457 0 124.442 0C126.355 0 128.067 0.277139 129.578 0.831418C131.089 1.3857 132.282 2.16347 133.159 3.16475C134.044 4.16603 134.531 5.32376 134.62 6.63793H128.961C128.863 5.91379 128.407 5.3461 127.593 4.93487C126.789 4.51469 125.703 4.3046 124.335 4.3046C123.065 4.3046 122.069 4.47446 121.344 4.81418C120.629 5.1539 120.272 5.63665 120.272 6.26245C120.272 6.75415 120.495 7.13857 120.942 7.41571C121.389 7.68391 122.171 7.87612 123.289 7.99234L127.298 8.38123C129.203 8.56003 130.727 8.86845 131.871 9.30651C133.016 9.74457 133.847 10.3436 134.366 11.1034C134.884 11.8633 135.143 12.8244 135.143 13.9866C135.143 15.3812 134.723 16.6105 133.883 17.6743C133.042 18.7292 131.858 19.5473 130.329 20.1284C128.8 20.7095 127.035 21 125.032 21C122.967 21 121.139 20.7095 119.547 20.1284C117.956 19.5383 116.714 18.7114 115.82 17.6475C114.926 16.5837 114.456 15.3544 114.411 13.9598H120.07Z" fill="black"/>
<path d="M151.859 8.90422L158.98 20.5575H152.664L148.346 13.2356L142.405 20.5575H137.377V0.442529H142.915V13.1015L152.825 0.442529H158.712L151.859 8.90422Z" fill="black"/>
</svg>
