<svg width="140" height="55" viewBox="0 0 140 55" fill="none" xmlns="http://www.w3.org/2000/svg">
<path d="M64.2794 48.5312H67.9709V34.6068H64.2794V48.5312ZM64.2794 32.4354H67.9709V29.124H64.2794V32.4354Z" fill="black"/>
<path d="M70.3494 53.0912H74.0409V46.9569H74.0953C74.8823 48.1511 76.1581 48.9383 78.1123 48.9383C81.6952 48.9383 84.1381 46.0883 84.1381 41.5826C84.1381 37.2396 81.7766 34.2268 78.0852 34.2268C76.1852 34.2268 74.8823 35.1226 73.9866 36.3439H73.9052V34.6068H70.3494V53.0912ZM77.3253 45.8711C75.1267 45.8711 73.9595 44.2155 73.9595 41.6911C73.9595 39.194 74.8823 37.2125 77.1895 37.2125C79.4695 37.2125 80.3923 39.0582 80.3923 41.6911C80.3923 44.324 79.1981 45.8711 77.3253 45.8711Z" fill="black"/>
<path d="M91.5018 48.9383C94.976 48.9383 97.3646 47.2554 97.3646 44.4597C97.3646 41.2025 94.7861 40.5512 92.4518 40.0626C90.4702 39.6554 88.6245 39.5468 88.6245 38.3526C88.6245 37.3483 89.5745 36.8053 91.0132 36.8053C92.5874 36.8053 93.5374 37.3483 93.7002 38.8411H97.0389C96.7674 36.0454 94.7318 34.2268 91.0675 34.2268C87.8917 34.2268 85.3945 35.6654 85.3945 38.6782C85.3945 41.7182 87.8375 42.3969 90.3346 42.8855C92.2346 43.2653 93.9989 43.4012 93.9989 44.7312C93.9989 45.7083 93.076 46.3325 91.4474 46.3325C89.7917 46.3325 88.6517 45.6269 88.4074 44.0254H84.9874C85.2046 46.9841 87.4574 48.9383 91.5018 48.9383Z" fill="black"/>
<path d="M111.38 48.5312V34.6068H107.688V42.6411C107.688 44.4868 106.63 45.7897 104.893 45.7897C103.318 45.7897 102.586 44.894 102.586 43.2653V34.6068H98.9212V43.8897C98.9212 46.9296 100.658 48.9112 103.753 48.9112C105.707 48.9112 106.793 48.1783 107.743 46.9025H107.824V48.5312H111.38Z" fill="black"/>
<path d="M113.768 48.5312H117.459V40.4425C117.459 38.5968 118.463 37.4026 119.956 37.4026C121.313 37.4026 122.101 38.2167 122.101 39.7911V48.5312H125.792V40.4425C125.792 38.5968 126.742 37.4026 128.289 37.4026C129.646 37.4026 130.433 38.2167 130.433 39.7911V48.5312H134.125V39.1669C134.125 36.1268 132.469 34.2268 129.538 34.2268C127.773 34.2268 126.308 35.1497 125.358 36.6696H125.303C124.625 35.204 123.213 34.2268 121.449 34.2268C119.522 34.2268 118.165 35.204 117.405 36.4797H117.323V34.6068H113.768V48.5312Z" fill="black"/>
<path d="M64.3337 24.6819H68.0251V5.27471H64.3337V24.6819Z" fill="black"/>
<path d="M77.0512 25.0891C81.3671 25.0891 84.3256 21.8862 84.3256 17.7333C84.3256 13.5805 81.3671 10.3776 77.0512 10.3776C72.7356 10.3776 69.7769 13.5805 69.7769 17.7333C69.7769 21.8862 72.7356 25.0891 77.0512 25.0891ZM77.0512 22.2662C74.7712 22.2662 73.5228 20.4476 73.5228 17.7333C73.5228 15.019 74.7712 13.1733 77.0512 13.1733C79.3041 13.1733 80.5799 15.019 80.5799 17.7333C80.5799 20.4476 79.3041 22.2662 77.0512 22.2662Z" fill="black"/>
<path d="M92.1758 29.432C94.2388 29.432 96.0302 28.9435 97.1973 27.8577C98.2287 26.9077 98.8531 25.5776 98.8531 23.6234V10.7576H95.2973V12.2233H95.243C94.4016 11.0562 93.1258 10.3776 91.3886 10.3776C87.8602 10.3776 85.3629 13.0376 85.3629 17.1905C85.3629 21.3976 88.403 23.8405 91.4973 23.8405C93.2616 23.8405 94.3202 23.1348 95.1345 22.212H95.2159V23.7319C95.2159 25.6319 94.2116 26.6362 92.1216 26.6362C90.4115 26.6362 89.6245 25.9577 89.3259 25.0891H85.6615C86.0416 27.8034 88.3759 29.432 92.1758 29.432ZM92.1216 20.8819C90.2216 20.8819 88.973 19.4976 88.973 17.1362C88.973 14.8019 90.2216 13.3362 92.0944 13.3362C94.3202 13.3362 95.4058 15.0733 95.4058 17.1091C95.4058 19.1719 94.4558 20.8819 92.1216 20.8819Z" fill="black"/>
<path d="M107.826 25.0891C112.141 25.0891 115.1 21.8862 115.1 17.7333C115.1 13.5805 112.141 10.3776 107.826 10.3776C103.51 10.3776 100.551 13.5805 100.551 17.7333C100.551 21.8862 103.51 25.0891 107.826 25.0891ZM107.826 22.2662C105.546 22.2662 104.297 20.4476 104.297 17.7333C104.297 15.019 105.546 13.1733 107.826 13.1733C110.079 13.1733 111.354 15.019 111.354 17.7333C111.354 20.4476 110.079 22.2662 107.826 22.2662Z" fill="black"/>
<path d="M118.336 19.362H134.296V16.1862H118.336V19.362Z" fill="black"/>
<path d="M135.466 32.2415C135.466 31.6169 135.973 31.1105 136.598 31.1105H138.859C139.484 31.1105 139.99 31.6169 139.99 32.2415C139.99 32.866 139.484 33.3724 138.859 33.3724H136.598C135.973 33.3724 135.466 32.866 135.466 32.2415Z" fill="black"/>
<path fill-rule="evenodd" clip-rule="evenodd" d="M27 0.959717C41.9117 0.959717 54 13.048 54 27.9597C54 42.8714 41.9117 54.9597 27 54.9597C12.0883 54.9597 0 42.8714 0 27.9597C0 13.048 12.0883 0.959717 27 0.959717ZM26.0241 2.98011C22.9439 3.4136 20.0109 5.88867 17.7341 10.0282C17.0737 11.2289 16.4778 12.5555 15.9585 13.9878C19.0543 13.2098 22.4551 12.7512 26.0241 12.6802V2.98011ZM13.6766 14.6363C14.3223 12.6096 15.1123 10.7451 16.024 9.08759C17.1526 7.03551 18.492 5.26345 20.0012 3.90241C11.7947 6.28578 5.32605 12.7544 2.94269 20.9609C4.30372 19.4517 6.0758 18.1123 8.12788 16.9837C9.78535 16.072 11.6499 15.282 13.6766 14.6363ZM13.028 16.9182C12.2501 20.014 11.7915 23.4148 11.7205 26.9838H2.02039C2.45389 23.9035 4.92896 20.9705 9.0685 18.6939C10.2692 18.0334 11.5958 17.4375 13.028 16.9182ZM13.6728 26.9838C13.7534 23.0889 14.314 19.4323 15.2418 16.2015C18.4726 15.2738 22.1293 14.713 26.0241 14.6324V18.8483C24.5711 22.5681 21.6076 25.5313 17.8876 26.9838H13.6728ZM11.7205 28.9356H2.02039C2.45389 32.0159 4.92896 34.9488 9.0685 37.2256C10.2692 37.886 11.5958 38.4819 13.028 39.0012C12.2501 35.9054 11.7915 32.5046 11.7205 28.9356ZM15.2418 39.7179C14.314 36.4871 13.7534 32.8305 13.6728 28.9356H17.8876C21.6076 30.3881 24.5712 33.3513 26.0241 37.0711V41.2871C22.1293 41.2065 18.4726 40.6457 15.2418 39.7179ZM13.6766 41.2831C11.6499 40.6374 9.78535 39.8474 8.12788 38.9358C6.0758 37.8072 4.30372 36.4677 2.94269 34.9585C5.32605 43.165 11.7947 49.6337 20.0012 52.017C18.492 50.6559 17.1526 48.8839 16.024 46.8318C15.1123 45.1744 14.3223 43.3098 13.6766 41.2831ZM26.0241 52.9393C22.9439 52.5058 20.0109 50.0307 17.7341 45.8912C17.0737 44.6905 16.4778 43.3639 15.9585 41.9317C19.0543 42.7095 22.4551 43.1683 26.0241 43.2392V52.9393ZM33.9988 52.017C35.508 50.6559 36.8474 48.8839 37.9762 46.8318C38.8877 45.1744 39.6777 43.3098 40.3234 41.2831C42.35 40.6374 44.2146 39.8474 45.8722 38.9358C47.9242 37.8072 49.6963 36.4677 51.0573 34.9585C48.674 43.165 42.2053 49.6337 33.9988 52.017ZM38.0415 41.9317C37.5222 43.3639 36.9263 44.6905 36.2659 45.8912C33.9892 50.0307 31.0562 52.5058 27.9759 52.9393V43.2392C31.5449 43.1683 34.9457 42.7095 38.0415 41.9317ZM40.972 39.0012C42.4042 38.4819 43.7308 37.886 44.9315 37.2256C49.071 34.9488 51.5461 32.0159 51.9796 28.9356H42.2794C42.2086 32.5046 41.7498 35.9054 40.972 39.0012ZM40.3273 28.9356C40.2467 32.8305 39.6859 36.4871 38.7582 39.7179C35.5274 40.6457 31.8708 41.2065 27.9759 41.2871V37.0742C29.4284 33.3531 32.3926 30.3885 36.1136 28.9356H40.3273ZM42.2794 26.9838H51.9796C51.5461 23.9035 49.071 20.9705 44.9315 18.6939C43.7308 18.0334 42.4042 17.4375 40.972 16.9182C41.7498 20.014 42.2086 23.4148 42.2794 26.9838ZM38.7582 16.2015C39.6859 19.4323 40.2467 23.0889 40.3273 26.9838H36.1136C32.3926 25.5309 29.4284 22.5663 27.9759 18.8452V14.6324C31.8708 14.713 35.5274 15.2738 38.7582 16.2015ZM40.3234 14.6363C42.35 15.282 44.2146 16.072 45.8722 16.9837C47.9242 18.1123 49.6963 19.4517 51.0573 20.9609C48.674 12.7544 42.2053 6.28578 33.9988 3.90241C35.508 5.26345 36.8474 7.03551 37.9762 9.08759C38.8877 10.7451 39.6777 12.6096 40.3234 14.6363ZM27.9759 2.98011C31.0562 3.4136 33.9892 5.88867 36.2659 10.0282C36.9263 11.229 37.5222 12.5555 38.0415 13.9878C34.9457 13.2098 31.5449 12.7512 27.9759 12.6802V2.98011Z" fill="black"/>
</svg>
