<svg width="212" height="29" viewBox="0 0 212 29" fill="none" xmlns="http://www.w3.org/2000/svg">
<path d="M21.1341 10.8318V0.908398H28.5543V27.7283H21.1341V17.3758H7.42018V27.7283H0V0.908398H7.42018V10.8318H21.1341Z" fill="white"/>
<path d="M47.5785 28.3184C44.4317 28.3184 41.6543 27.7343 39.2465 26.5661C36.8387 25.398 34.9672 23.759 33.6322 21.6491C32.3091 19.5274 31.6475 17.0838 31.6475 14.3184C31.6475 11.5529 32.3091 9.1153 33.6322 7.00546C34.9672 4.88371 36.8387 3.23875 39.2465 2.0706C41.6543 0.902438 44.4317 0.318359 47.5785 0.318359C50.7254 0.318359 53.5028 0.902438 55.9106 2.0706C58.3184 3.23875 60.1839 4.88371 61.507 7.00546C62.8421 9.1153 63.5096 11.5529 63.5096 14.3184C63.5096 17.0838 62.8421 19.5274 61.507 21.6491C60.1839 23.759 58.3184 25.398 55.9106 26.5661C53.5028 27.7343 50.7254 28.3184 47.5785 28.3184ZM47.5785 21.6849C49.295 21.6849 50.785 21.3869 52.0485 20.7909C53.324 20.1949 54.3014 19.3426 54.9808 18.2341C55.6722 17.1255 56.0179 15.8203 56.0179 14.3184C56.0179 12.8164 55.6722 11.5112 54.9808 10.4027C54.3014 9.29409 53.324 8.44182 52.0485 7.84582C50.785 7.24982 49.295 6.95182 47.5785 6.95182C45.8621 6.95182 44.3661 7.24982 43.0907 7.84582C41.8272 8.44182 40.8497 9.29409 40.1584 10.4027C39.4789 11.5112 39.1392 12.8164 39.1392 14.3184C39.1392 15.8203 39.4789 17.1255 40.1584 18.2341C40.8497 19.3426 41.8272 20.1949 43.0907 20.7909C44.3661 21.3869 45.8621 21.6849 47.5785 21.6849Z" fill="white"/>
<path d="M63.7088 0.908398H91.5836V7.5061H81.3563V27.7283H73.9361V7.5061H63.7088V0.908398Z" fill="white"/>
<path d="M107.421 0.908398C110.58 0.908398 113.357 1.46268 115.753 2.57123C118.161 3.67979 120.026 5.24727 121.35 7.27366C122.673 9.30005 123.334 11.6483 123.334 14.3184C123.334 16.9884 122.673 19.3367 121.35 21.3631C120.026 23.3895 118.161 24.9569 115.753 26.0655C113.357 27.174 110.58 27.7283 107.421 27.7283H94.029V0.908398H107.421ZM107.975 21.1306C109.573 21.1306 110.961 20.8565 112.141 20.3081C113.333 19.7479 114.245 18.9552 114.877 17.9301C115.521 16.905 115.843 15.7011 115.843 14.3184C115.843 12.9356 115.521 11.7317 114.877 10.7066C114.245 9.68149 113.333 8.89477 112.141 8.34646C110.961 7.78622 109.573 7.5061 107.975 7.5061H101.413V21.1306H107.975Z" fill="white"/>
<path d="M133.973 17.0182L133.222 21.7207H150.208V27.7283H125.266L127.304 14.3184L125.266 0.908398H150.03V6.91606H133.222L133.973 11.6185H148.992V17.0182H133.973Z" fill="white"/>
<path d="M160.094 18.9314C160.261 20.0638 160.94 20.9578 162.132 21.6134C163.324 22.2571 164.898 22.5789 166.853 22.5789C168.688 22.5789 170.119 22.3405 171.144 21.8637C172.181 21.3869 172.699 20.7075 172.699 19.8254C172.699 19.3486 172.568 18.9552 172.306 18.6453C172.044 18.3235 171.597 18.0612 170.965 17.8586C170.345 17.656 169.481 17.501 168.372 17.3937L163.402 16.9288C159.742 16.5951 157.066 15.7726 155.374 14.4614C153.693 13.1383 152.853 11.3026 152.853 8.95438C152.853 7.13062 153.389 5.57506 154.462 4.28771C155.535 2.98843 157.048 2.00504 159.003 1.33752C160.97 0.658079 163.277 0.318359 165.923 0.318359C168.474 0.318359 170.756 0.687879 172.771 1.42692C174.785 2.16596 176.377 3.20299 177.545 4.53803C178.725 5.87306 179.375 7.4167 179.494 9.16893H171.948C171.817 8.20342 171.209 7.4465 170.125 6.89818C169.052 6.33794 167.604 6.05782 165.78 6.05782C164.087 6.05782 162.758 6.2843 161.793 6.73726C160.839 7.19022 160.362 7.8339 160.362 8.66829C160.362 9.32389 160.66 9.83645 161.256 10.206C161.852 10.5636 162.895 10.8198 164.385 10.9748L169.731 11.4933C172.27 11.7317 174.303 12.143 175.828 12.727C177.354 13.3111 178.463 14.1098 179.154 15.123C179.845 16.1362 180.191 17.4176 180.191 18.9671C180.191 20.8267 179.631 22.4657 178.51 23.8841C177.39 25.2907 175.81 26.3814 173.772 27.1562C171.734 27.931 169.38 28.3184 166.71 28.3184C163.956 28.3184 161.518 27.931 159.397 27.1562C157.275 26.3694 155.618 25.2668 154.426 23.8484C153.234 22.4299 152.608 20.7909 152.549 18.9314H160.094Z" fill="white"/>
<path d="M202.479 12.1906L211.974 27.7283H203.552L197.795 17.9659L189.874 27.7283H183.169V0.908398H190.553V17.7871L203.767 0.908398H211.616L202.479 12.1906Z" fill="white"/>
</svg>
