<svg width="198" height="62" viewBox="0 0 198 62" fill="none" xmlns="http://www.w3.org/2000/svg">
<path d="M118.147 55.5332C118.147 56.1969 118.705 56.7259 119.372 56.6942L129.262 56.2243C129.886 56.1947 130.376 55.6836 130.376 55.0633V23.9899C130.376 23.3297 129.823 22.802 129.16 22.8284L119.27 23.2218C118.643 23.2467 118.147 23.7593 118.147 24.3832V55.5332Z" fill="black"/>
<path d="M119.685 17.0138C120.896 18.218 122.41 18.8201 124.227 18.8201C126.136 18.8201 127.674 18.218 128.838 17.0138C130.05 15.7633 130.655 14.2117 130.655 12.3591C130.655 10.5528 130.05 9.0244 128.838 7.77389C127.674 6.52337 126.136 5.89811 124.227 5.89811C122.41 5.89811 120.896 6.52337 119.685 7.77389C118.473 9.0244 117.868 10.5528 117.868 12.3591C117.868 14.2117 118.473 15.7633 119.685 17.0138Z" fill="black"/>
<path fill-rule="evenodd" clip-rule="evenodd" d="M88.7232 36.8136V53.703C88.7232 54.2626 88.3222 54.7428 87.7689 54.8456L77.5992 56.7357C76.8799 56.8694 76.2153 56.3207 76.2153 55.5932V8.65834C76.2153 8.01639 76.7387 7.49599 77.3844 7.49599H97.318C100.672 7.49599 103.607 8.12125 106.122 9.37177C108.685 10.6223 110.688 12.336 112.132 14.5128C113.576 16.6896 114.298 19.2369 114.298 22.1548C114.298 25.0727 113.553 27.6432 112.062 29.8663C110.618 32.0432 108.591 33.7568 105.983 35.0073C104.854 35.5283 103.643 35.9365 102.349 36.2321L115.614 54.1834C116.26 55.0574 115.456 56.2568 114.396 56.0012L103.431 53.3578C103.183 53.2979 102.961 53.1584 102.799 52.9607L89.6175 36.8136H88.7232ZM88.7232 27.9211H95.5711C97.6208 27.9211 99.1814 27.4348 100.253 26.4622C101.371 25.4432 101.93 24.0769 101.93 22.3632C101.93 20.6959 101.371 19.3527 100.253 18.3338C99.1814 17.2685 97.6208 16.7359 95.5711 16.7359H88.7232V27.9211Z" fill="black"/>
<path d="M146.964 57.725C144.867 57.725 142.794 57.4472 140.745 56.8914C138.742 56.3356 136.855 55.5945 135.085 54.6682C133.731 53.9043 132.535 53.0546 131.497 52.1192C131.029 51.6969 131.034 50.9762 131.477 50.5271L136.477 45.4511C136.939 44.9824 137.695 44.9913 138.199 45.4154C139.116 46.1883 140.151 46.8178 141.304 47.3041C142.888 47.9525 144.565 48.2767 146.335 48.2767C147.36 48.2767 148.128 48.1378 148.641 47.8599C149.2 47.582 149.479 47.1883 149.479 46.6788C149.479 45.9378 149.083 45.382 148.291 45.0115C147.546 44.5946 146.544 44.2473 145.287 43.9694C144.075 43.6452 142.794 43.2746 141.443 42.8578C140.092 42.3946 138.788 41.7926 137.53 41.0515C136.273 40.3105 135.248 39.2684 134.456 37.9252C133.71 36.5821 133.338 34.8684 133.338 32.7842C133.338 30.6074 133.92 28.7084 135.085 27.0874C136.296 25.4201 137.973 24.1232 140.116 23.1969C142.259 22.2243 144.774 21.738 147.662 21.738C150.597 21.738 153.392 22.2475 156.048 23.2664C158.306 24.0936 160.574 25.6961 162.205 27.382C162.661 27.8537 162.572 28.6044 162.05 29.0035L156.267 33.4266C155.78 33.7985 155.096 33.7231 154.64 33.3151C153.846 32.6044 153.095 32.2343 152.065 31.8811C150.714 31.3716 149.479 31.1168 148.361 31.1168C147.29 31.1168 146.521 31.279 146.055 31.6032C145.589 31.8811 145.357 32.2747 145.357 32.7842C145.357 33.3863 145.729 33.8726 146.475 34.2431C147.266 34.6137 148.268 34.961 149.479 35.2852C150.737 35.5631 152.018 35.9337 153.322 36.3968C154.673 36.86 155.954 37.5084 157.166 38.3421C158.423 39.1294 159.425 40.1947 160.17 41.5378C160.962 42.881 161.358 44.6178 161.358 46.7483C161.358 50.1293 160.054 52.8156 157.445 54.8072C154.836 56.7524 151.343 57.725 146.964 57.725Z" fill="black"/>
<path fill-rule="evenodd" clip-rule="evenodd" d="M170.491 55.2935C173.426 56.7756 176.804 57.5166 180.623 57.5166C183.651 57.5166 186.353 57.0303 188.729 56.0577C190.802 55.2256 192.601 54.0544 194.128 52.5442C194.565 52.1121 194.539 51.4133 194.104 50.9801L189.401 46.3043C188.923 45.8298 188.146 45.8607 187.646 46.3115C186.847 47.0327 185.973 47.5952 185.026 47.9988C183.768 48.5546 182.3 48.8325 180.623 48.8325C178.853 48.8325 177.363 48.4851 176.151 47.7904C174.94 47.0957 174.008 46.0767 173.356 44.7336C173.197 44.3934 173.056 44.0366 172.936 43.6631L195.996 43.5567C196.531 43.5543 197 43.1926 197.105 42.6716C197.22 42.1029 197.293 41.586 197.324 41.121C197.417 40.3799 197.464 39.662 197.464 38.9673C197.464 35.6789 196.695 32.761 195.158 30.2137C193.667 27.62 191.571 25.6053 188.869 24.1695C186.214 22.6874 183.162 21.9464 179.715 21.9464C176.175 21.9464 172.984 22.7338 170.142 24.3085C167.347 25.8369 165.134 27.9442 163.504 30.6305C161.873 33.2705 161.058 36.3042 161.058 39.7315C161.058 43.2052 161.897 46.2851 163.574 48.9714C165.251 51.6577 167.557 53.7651 170.491 55.2935ZM172.91 35.8601C173.019 35.5142 173.144 35.1836 173.286 34.8684C173.892 33.5252 174.754 32.4832 175.872 31.7421C176.99 31.0011 178.318 30.6305 179.855 30.6305C181.346 30.6305 182.58 30.9547 183.558 31.6032C184.537 32.2516 185.282 33.201 185.794 34.4516C185.963 34.847 186.106 35.28 186.224 35.7504L172.91 35.8601Z" fill="black"/>
<path d="M183.045 17.1215V8.15479H185.338V17.1215H183.045ZM180.265 10.0526V8.0911H188.118V10.0526H180.265Z" fill="black"/>
<path d="M188.52 17.1215V8.0911H190.173L193.657 13.3259H192.876L196.347 8.0911H198V17.1215H195.732V11.8612L196.091 11.9631L194.003 15.0836H192.517L190.442 11.9631L190.8 11.8612V17.1215H188.52Z" fill="black"/>
<path d="M16.4993 3.35217C16.4993 2.66276 17.0156 2.08124 17.7037 1.99572L25.9533 0.970474C26.7739 0.868487 27.4988 1.50467 27.4988 2.32692V29.3039C27.4988 30.1261 26.7739 30.7623 25.9533 30.6603L17.7037 29.6351C17.0156 29.5496 16.4993 28.9681 16.4993 28.2787V3.35217Z" fill="black"/>
<path d="M0 6.76967C0 6.08026 0.51634 5.49874 1.2044 5.41323L9.45404 4.38798C10.2747 4.28599 10.9995 4.92217 10.9995 5.74442V27.2534C10.9995 28.0756 10.2747 28.7118 9.45404 28.6098L1.2044 27.5846C0.516339 27.4991 0 26.9176 0 26.2281V6.76967Z" fill="black"/>
<path d="M42.9566 3.25354C43.5687 3.40568 43.9981 3.95246 43.9981 4.57973V15.9756C43.9981 16.6651 43.4817 17.2466 42.7937 17.3321L34.544 18.3573C33.7234 18.4593 32.9985 17.8231 32.9985 17.0009V2.52923C32.9985 1.6399 33.8392 0.987347 34.707 1.20304L42.9566 3.25354Z" fill="black"/>
<path d="M59.1224 7.99723C59.1224 7.36996 58.693 6.82318 58.0809 6.67104L49.8313 4.62054C48.9635 4.40485 48.1229 5.0574 48.1229 5.94673V16.3174C48.1229 17.1396 48.8477 17.7758 49.6684 17.6738L57.918 16.6486C58.6061 16.5631 59.1224 15.9816 59.1224 15.2921V7.99723Z" fill="black"/>
<path d="M59.1224 21.9669L32.3111 22.6504C32.699 27.6643 36.9042 31.5359 41.9621 31.5359H48.1229V37.3536L0 32.9029V61.4018L59.1224 57.3008V21.9669Z" fill="black"/>
</svg>
