<svg width="198" height="39" viewBox="0 0 198 39" fill="none" xmlns="http://www.w3.org/2000/svg">
<path d="M4.87708 4.26692C7.57298 1.69304 11.2336 0.190658 14.9438 0.00381315C16.2136 0.00381315 17.4872 0.0114395 18.757 0C18.6921 1.3613 18.757 2.72641 18.7188 4.0877C18.5396 7.1306 17.4147 10.1049 15.5196 12.4919C13.0563 15.7026 9.2889 17.857 5.2889 18.4137C3.54248 18.6959 1.76936 18.5167 0.0114984 18.5662C0.0420037 17.0677 -0.0533252 15.5653 0.0648826 14.0705C0.408066 10.3642 2.1583 6.81411 4.87708 4.26692Z" fill="white"/>
<path d="M19.9329 0C21.2942 0.0152526 22.6555 -0.00762631 24.0206 0.00762631C27.4181 0.247855 30.7699 1.55195 33.3285 3.81315C36.1502 6.23451 38.0835 9.69685 38.5792 13.3956C38.7965 15.1115 38.6593 16.8465 38.7432 18.5701C37.5535 18.5662 36.3676 18.5624 35.1779 18.5701C32.2532 18.49 29.378 17.5443 26.93 15.9504C25.8013 15.142 24.6421 14.3222 23.7956 13.2011C21.9386 11.1268 20.6764 8.5224 20.1998 5.77693C19.8414 3.87035 19.9863 1.92564 19.9329 0Z" fill="white"/>
<path d="M0.0140954 19.6605C1.22287 19.7292 2.43545 19.6033 3.6404 19.7368C8.7996 19.8474 13.8063 22.7454 16.4793 27.1572C18.0122 29.6281 18.8358 32.5566 18.7291 35.466C18.7252 36.4193 18.7405 37.3688 18.7138 38.3183C16.7996 38.2611 14.8663 38.4174 12.9712 38.0475C8.76147 37.3383 4.89112 34.8331 2.56128 31.2563C0.795792 28.6557 -0.0850466 25.4794 0.0064691 22.3412C0.0064691 21.4451 0.0064691 20.5528 0.0140954 19.6605Z" fill="white"/>
<path d="M32.3004 20.0645C34.3747 19.6031 36.5139 19.6793 38.6226 19.6793L38.7141 19.7709C38.6683 21.7651 38.8247 23.7823 38.4243 25.7537C37.5816 30.177 34.6531 34.1274 30.7141 36.2971C28.2622 37.6622 25.4481 38.3333 22.6455 38.3028C21.7494 38.3066 20.8495 38.2875 19.9534 38.3142C19.9534 36.6631 19.8847 35.0044 20.0716 33.3609C20.5063 29.3838 22.6569 25.6813 25.7494 23.1798C27.6636 21.6698 29.9133 20.5754 32.3004 20.0645Z" fill="white"/>
<path d="M54.368 30.9328C54.368 31.6041 54.1357 32.1721 53.6709 32.6368C53.232 33.0758 52.6769 33.2952 52.0056 33.2952C51.3601 33.2952 50.8179 33.0758 50.3789 32.6368C49.94 32.1721 49.7206 31.6041 49.7206 30.9328V6.99823C49.7206 6.32693 49.94 5.77181 50.3789 5.33288C50.8437 4.86814 51.4117 4.63576 52.083 4.63576C52.7543 4.63576 53.2965 4.86814 53.7096 5.33288C54.1486 5.77181 54.368 6.32693 54.368 6.99823V30.9328Z" fill="white"/>
<path d="M73.0218 12.5752C73.6931 12.5752 74.2482 12.8076 74.6872 13.2723C75.1261 13.7113 75.3455 14.2664 75.3455 14.9377V24.7748C75.3455 27.5117 74.5839 29.6805 73.0605 31.2813C71.5372 32.8821 69.3425 33.6825 66.4766 33.6825C63.6107 33.6825 61.416 32.8821 59.8927 31.2813C58.3951 29.6805 57.6464 27.5117 57.6464 24.7748V14.9377C57.6464 14.2664 57.8659 13.7113 58.3048 13.2723C58.7437 12.8076 59.2988 12.5752 59.9701 12.5752C60.6414 12.5752 61.1965 12.8076 61.6355 13.2723C62.0744 13.7113 62.2939 14.2664 62.2939 14.9377V24.7748C62.2939 26.3498 62.6424 27.5246 63.3395 28.2992C64.0367 29.0479 65.0824 29.4223 66.4766 29.4223C67.8967 29.4223 68.9553 29.0479 69.6524 28.2992C70.3495 27.5246 70.6981 26.3498 70.6981 24.7748V14.9377C70.6981 14.2664 70.9175 13.7113 71.3565 13.2723C71.7954 12.8076 72.3505 12.5752 73.0218 12.5752Z" fill="white"/>
<path d="M89.3234 12.1879C91.3889 12.1879 92.9123 12.6914 93.8934 13.6983C94.8745 14.6795 95.52 15.9575 95.8299 17.5325L95.1715 17.184L95.4813 16.5643C95.7911 15.9705 96.2688 15.3379 96.9143 14.6666C97.5598 13.9695 98.3343 13.3885 99.238 12.9238C100.168 12.4332 101.2 12.1879 102.336 12.1879C104.195 12.1879 105.602 12.5881 106.558 13.3885C107.539 14.1889 108.21 15.2604 108.572 16.603C108.933 17.9198 109.114 19.3915 109.114 21.0181V30.9328C109.114 31.6041 108.894 32.1721 108.456 32.6368C108.017 33.0758 107.461 33.2952 106.79 33.2952C106.119 33.2952 105.564 33.0758 105.125 32.6368C104.686 32.1721 104.466 31.6041 104.466 30.9328V21.0181C104.466 20.1661 104.363 19.4044 104.157 18.7331C103.95 18.036 103.576 17.4809 103.033 17.0678C102.491 16.6547 101.717 16.4481 100.71 16.4481C99.7286 16.4481 98.8895 16.6547 98.1923 17.0678C97.4952 17.4809 96.9659 18.036 96.6044 18.7331C96.2688 19.4044 96.101 20.1661 96.101 21.0181V30.9328C96.101 31.6041 95.8815 32.1721 95.4426 32.6368C95.0036 33.0758 94.4485 33.2952 93.7772 33.2952C93.1059 33.2952 92.5508 33.0758 92.1119 32.6368C91.6729 32.1721 91.4535 31.6041 91.4535 30.9328V21.0181C91.4535 20.1661 91.3502 19.4044 91.1436 18.7331C90.9371 18.036 90.5627 17.4809 90.0205 17.0678C89.4783 16.6547 88.7037 16.4481 87.6968 16.4481C86.7156 16.4481 85.8765 16.6547 85.1794 17.0678C84.4823 17.4809 83.953 18.036 83.5915 18.7331C83.2558 19.4044 83.088 20.1661 83.088 21.0181V30.9328C83.088 31.6041 82.8685 32.1721 82.4296 32.6368C81.9907 33.0758 81.4356 33.2952 80.7643 33.2952C80.093 33.2952 79.5379 33.0758 79.0989 32.6368C78.66 32.1721 78.4405 31.6041 78.4405 30.9328V14.9377C78.4405 14.2664 78.66 13.7113 79.0989 13.2723C79.5379 12.8076 80.093 12.5752 80.7643 12.5752C81.4356 12.5752 81.9907 12.8076 82.4296 13.2723C82.8685 13.7113 83.088 14.2664 83.088 14.9377V16.603L82.5071 16.4868C82.7395 16.0479 83.0622 15.5832 83.4753 15.0926C83.8884 14.5762 84.3919 14.0985 84.9857 13.6596C85.5796 13.2207 86.238 12.8721 86.9609 12.6139C87.6839 12.3299 88.4713 12.1879 89.3234 12.1879Z" fill="white"/>
<path d="M116.584 30.9328C116.584 31.6041 116.364 32.1721 115.925 32.6368C115.486 33.0758 114.931 33.2952 114.26 33.2952C113.589 33.2952 113.034 33.0758 112.595 32.6368C112.156 32.1721 111.936 31.6041 111.936 30.9328V14.9377C111.936 14.2664 112.156 13.7113 112.595 13.2723C113.034 12.8076 113.589 12.5752 114.26 12.5752C114.931 12.5752 115.486 12.8076 115.925 13.2723C116.364 13.7113 116.584 14.2664 116.584 14.9377V30.9328ZM114.221 10.0578C113.343 10.0578 112.724 9.91582 112.362 9.6318C112.001 9.34779 111.82 8.84431 111.82 8.12137V7.38552C111.82 6.63676 112.014 6.13328 112.401 5.87509C112.814 5.59108 113.434 5.44907 114.26 5.44907C115.164 5.44907 115.796 5.59108 116.158 5.87509C116.519 6.1591 116.7 6.66258 116.7 7.38552V8.12137C116.7 8.87013 116.506 9.38652 116.119 9.67053C115.732 9.92873 115.099 10.0578 114.221 10.0578Z" fill="white"/>
<path d="M130.5 12.1879C132.411 12.1879 133.857 12.5881 134.838 13.3885C135.845 14.1889 136.529 15.2604 136.89 16.603C137.278 17.9198 137.471 19.3915 137.471 21.0181V30.9328C137.471 31.6041 137.252 32.1721 136.813 32.6368C136.374 33.0758 135.819 33.2952 135.148 33.2952C134.476 33.2952 133.921 33.0758 133.482 32.6368C133.043 32.1721 132.824 31.6041 132.824 30.9328V21.0181C132.824 20.1661 132.708 19.4044 132.475 18.7331C132.269 18.036 131.882 17.4809 131.313 17.0678C130.745 16.6547 129.932 16.4481 128.874 16.4481C127.841 16.4481 126.963 16.6547 126.24 17.0678C125.543 17.4809 125.001 18.036 124.613 18.7331C124.252 19.4044 124.071 20.1661 124.071 21.0181V30.9328C124.071 31.6041 123.852 32.1721 123.413 32.6368C122.974 33.0758 122.419 33.2952 121.747 33.2952C121.076 33.2952 120.521 33.0758 120.082 32.6368C119.643 32.1721 119.424 31.6041 119.424 30.9328V14.9377C119.424 14.2664 119.643 13.7113 120.082 13.2723C120.521 12.8076 121.076 12.5752 121.747 12.5752C122.419 12.5752 122.974 12.8076 123.413 13.2723C123.852 13.7113 124.071 14.2664 124.071 14.9377V16.603L123.49 16.4868C123.723 16.0479 124.058 15.5832 124.497 15.0926C124.936 14.5762 125.452 14.0985 126.046 13.6596C126.64 13.2207 127.311 12.8721 128.06 12.6139C128.809 12.3299 129.622 12.1879 130.5 12.1879Z" fill="white"/>
<path d="M160.465 22.9546C160.465 25.0718 159.987 26.9437 159.032 28.5703C158.102 30.1711 156.837 31.4233 155.237 32.327C153.662 33.2307 151.893 33.6825 149.931 33.6825C147.968 33.6825 146.187 33.2307 144.586 32.327C143.011 31.4233 141.746 30.1711 140.791 28.5703C139.861 26.9437 139.396 25.0718 139.396 22.9546C139.396 20.8374 139.861 18.9784 140.791 17.3776C141.746 15.751 143.011 14.4858 144.586 13.5822C146.187 12.6527 147.968 12.1879 149.931 12.1879C151.893 12.1879 153.662 12.6527 155.237 13.5822C156.837 14.4858 158.102 15.751 159.032 17.3776C159.987 18.9784 160.465 20.8374 160.465 22.9546ZM155.817 22.9546C155.817 21.6378 155.546 20.5017 155.004 19.5464C154.488 18.5653 153.778 17.8036 152.874 17.2614C151.996 16.7192 151.015 16.4481 149.931 16.4481C148.846 16.4481 147.852 16.7192 146.949 17.2614C146.071 17.8036 145.361 18.5653 144.818 19.5464C144.302 20.5017 144.044 21.6378 144.044 22.9546C144.044 24.2456 144.302 25.3816 144.818 26.3627C145.361 27.3181 146.071 28.0668 146.949 28.609C147.852 29.1512 148.846 29.4223 149.931 29.4223C151.015 29.4223 151.996 29.1512 152.874 28.609C153.778 28.0668 154.488 27.3181 155.004 26.3627C155.546 25.3816 155.817 24.2456 155.817 22.9546Z" fill="white"/>
<path d="M177.787 12.5752C178.458 12.5752 179.013 12.8076 179.452 13.2723C179.891 13.7113 180.111 14.2664 180.111 14.9377V24.7748C180.111 27.5117 179.349 29.6805 177.826 31.2813C176.302 32.8821 174.108 33.6825 171.242 33.6825C168.376 33.6825 166.181 32.8821 164.658 31.2813C163.16 29.6805 162.411 27.5117 162.411 24.7748V14.9377C162.411 14.2664 162.631 13.7113 163.07 13.2723C163.509 12.8076 164.064 12.5752 164.735 12.5752C165.406 12.5752 165.962 12.8076 166.4 13.2723C166.839 13.7113 167.059 14.2664 167.059 14.9377V24.7748C167.059 26.3498 167.407 27.5246 168.105 28.2992C168.802 29.0479 169.847 29.4223 171.242 29.4223C172.662 29.4223 173.72 29.0479 174.417 28.2992C175.114 27.5246 175.463 26.3498 175.463 24.7748V14.9377C175.463 14.2664 175.683 13.7113 176.121 13.2723C176.56 12.8076 177.115 12.5752 177.787 12.5752Z" fill="white"/>
<path d="M182.005 30.0807C181.747 29.7192 181.631 29.2545 181.656 28.6865C181.682 28.1184 182.018 27.6279 182.663 27.2148C183.076 26.9566 183.515 26.8533 183.98 26.9049C184.445 26.9308 184.897 27.1631 185.336 27.6021C186.084 28.3508 186.872 28.9318 187.698 29.3449C188.524 29.758 189.557 29.9645 190.796 29.9645C191.184 29.9387 191.61 29.8871 192.074 29.8096C192.539 29.7063 192.939 29.4998 193.275 29.19C193.637 28.8543 193.817 28.3508 193.817 27.6795C193.817 27.1115 193.624 26.6597 193.236 26.324C192.849 25.9884 192.333 25.7043 191.687 25.472C191.068 25.2396 190.37 25.0201 189.596 24.8136C188.795 24.5812 187.969 24.323 187.117 24.039C186.291 23.755 185.529 23.3935 184.832 22.9546C184.135 22.4898 183.567 21.8831 183.128 21.1343C182.689 20.3856 182.47 19.4432 182.47 18.3071C182.47 17.0161 182.831 15.9188 183.554 15.0151C184.277 14.1115 185.207 13.4143 186.343 12.9238C187.504 12.4332 188.718 12.1879 189.983 12.1879C190.783 12.1879 191.623 12.2912 192.5 12.4978C193.378 12.6785 194.217 12.9883 195.018 13.4272C195.818 13.8404 196.49 14.3955 197.032 15.0926C197.316 15.4799 197.484 15.9446 197.535 16.4868C197.587 17.029 197.342 17.5196 196.799 17.9585C196.412 18.2684 195.96 18.4104 195.444 18.3846C194.928 18.3329 194.501 18.1522 194.166 17.8424C193.727 17.2743 193.133 16.8225 192.384 16.4868C191.661 16.1512 190.822 15.9834 189.867 15.9834C189.48 15.9834 189.054 16.035 188.589 16.1383C188.15 16.2157 187.763 16.4094 187.427 16.7192C187.091 17.0032 186.924 17.468 186.924 18.1135C186.924 18.7073 187.117 19.185 187.504 19.5464C187.892 19.8821 188.408 20.1661 189.054 20.3985C189.725 20.605 190.435 20.8116 191.184 21.0181C191.958 21.2247 192.746 21.47 193.546 21.754C194.347 22.038 195.082 22.4124 195.754 22.8771C196.425 23.3419 196.967 23.9486 197.38 24.6974C197.793 25.4203 198 26.3498 198 27.4859C198 28.8027 197.613 29.9258 196.838 30.8553C196.064 31.7848 195.095 32.4948 193.933 32.9854C192.772 33.4501 191.584 33.6825 190.37 33.6825C188.847 33.6825 187.324 33.4243 185.8 32.9079C184.277 32.3657 183.012 31.4233 182.005 30.0807Z" fill="white"/>
</svg>
