<svg width="83" height="73" viewBox="0 0 83 73" fill="none" xmlns="http://www.w3.org/2000/svg">
<path fill-rule="evenodd" clip-rule="evenodd" d="M51.4286 62.674C54.13 62.674 56.8051 62.1418 59.3008 61.1081C61.7968 60.0742 64.0646 58.5591 65.9748 56.6488C67.8851 54.7386 69.4002 52.4708 70.4341 49.9748C71.4678 47.4791 72 44.804 72 42.1026C72 33.9188 68.7489 26.07 62.9622 20.2833C57.1754 14.4964 49.3266 11.2454 41.1429 11.2454C32.9591 11.2454 25.1103 14.4964 19.3236 20.2833C13.5367 26.07 10.2857 33.9188 10.2857 42.1026C10.2857 44.804 10.8178 47.4791 11.8516 49.9748C12.8854 52.4708 14.4007 54.7386 16.3109 56.6488C18.2212 58.5591 20.489 60.0742 22.9849 61.1081C25.4806 62.1418 28.1557 62.674 30.8571 62.674H51.4286ZM41.1429 19.474C35.1414 19.474 29.3857 21.858 25.142 26.1017C20.8983 30.3454 18.5143 36.1011 18.5143 42.1026C18.5143 43.7234 18.8335 45.3284 19.4538 46.826C20.0741 48.3236 20.9833 49.6842 22.1295 50.8302C23.2755 51.9764 24.6361 52.8855 26.1337 53.5059C27.6313 54.1262 29.2363 54.4454 30.8571 54.4454H51.4286C53.0494 54.4454 54.6544 54.1262 56.152 53.5059C57.6496 52.8855 59.0102 51.9764 60.1562 50.8302C61.3024 49.6842 62.2115 48.3236 62.8319 46.826C63.4522 45.3284 63.7714 43.7234 63.7714 42.1026C63.7714 36.1011 61.3874 30.3454 57.1437 26.1017C52.9 21.858 47.1444 19.474 41.1429 19.474Z" fill="white"/>
<path fill-rule="evenodd" clip-rule="evenodd" d="M26.7429 72.9597C23.2309 72.9597 19.7535 72.1616 16.5088 70.6109C13.2643 69.0602 10.3162 66.7873 7.8328 63.9219C5.34954 61.0565 3.37966 57.655 2.03568 53.9112C0.691729 50.1674 0 46.1547 0 42.1026C0 31.1909 4.33469 20.726 12.0505 13.0102C19.7662 5.29441 30.2312 0.959717 41.1429 0.959717C52.0546 0.959717 62.5195 5.29441 70.2352 13.0102C77.9511 20.726 82.2857 31.1909 82.2857 42.1026C82.2857 46.1547 81.5939 50.1674 80.25 53.9112C78.906 57.655 76.9361 61.0565 74.4529 63.9219C71.9696 66.7873 69.0215 69.0602 65.7769 70.6109C62.5322 72.1616 59.0548 72.9597 55.5429 72.9597H26.7429ZM17.8689 18.8287C24.0416 12.656 32.4134 9.18829 41.1429 9.18829C49.8723 9.18829 58.2441 12.656 64.4167 18.8287C70.5894 25.0013 74.0571 33.3731 74.0571 42.1026C74.0571 45.2251 73.5231 48.296 72.5054 51.131C71.4878 53.9657 70.0202 56.4725 68.2346 58.5328C66.4511 60.5907 64.3978 62.1498 62.2286 63.1866C60.0647 64.221 57.7969 64.7311 55.5429 64.7311H26.7429C24.4888 64.7311 22.2211 64.221 20.0571 63.1866C17.8879 62.1498 15.8347 60.5907 14.051 58.5328C12.2655 56.4725 10.798 53.9657 9.78034 51.131C8.76263 48.296 8.22857 45.2251 8.22857 42.1026C8.22857 33.3731 11.6963 25.0013 17.8689 18.8287Z" fill="white"/>
<path d="M51.4286 52.3883H41.1338C40.4426 52.3877 39.7565 52.3173 39.0857 52.1805C37.7856 51.9151 36.5425 51.3992 35.4285 50.6547C33.7369 49.5245 32.4185 47.9183 31.6401 46.0387C31.3877 45.4292 31.1955 44.7999 31.0649 44.1597C30.7925 42.8257 30.7866 41.4441 31.0548 40.0958C31.4517 38.1006 32.4313 36.2679 33.8698 34.8295C35.3082 33.391 37.1409 32.4114 39.1361 32.0146C39.1986 32.002 39.261 31.9903 39.3235 31.979C39.9265 31.8708 40.5354 31.8169 41.1429 31.8169C42.4872 31.8169 43.825 32.0804 45.079 32.5998C46.9584 33.3782 48.5648 34.6967 49.695 36.388C50.8254 38.0796 51.4286 40.0683 51.4286 42.1026H43.2C43.2 41.6957 43.0794 41.298 42.8534 40.9596C42.6273 40.6214 42.306 40.3577 41.9301 40.202C41.5543 40.0463 41.1406 40.0055 40.7415 40.0849C40.3424 40.1643 39.9758 40.3602 39.6883 40.648C39.4005 40.9356 39.2046 41.3021 39.1252 41.7012C39.0458 42.1003 39.0865 42.514 39.2423 42.8898C39.398 43.2657 39.6617 43.587 39.9999 43.8131C40.3383 44.0392 40.736 44.1597 41.1429 44.1597H51.4286C51.6987 44.1597 51.9663 44.1064 52.2158 44.0032C52.4654 43.8997 52.6921 43.7483 52.8832 43.5572C53.0743 43.3661 53.2257 43.1394 53.3292 42.8898C53.4324 42.6403 53.4857 42.3727 53.4857 42.1026C53.4857 38.829 52.1854 35.6896 49.8705 33.3749C47.5558 31.06 44.4164 29.7597 41.1429 29.7597C40.7878 29.7597 40.4344 29.7749 40.0834 29.8052C39.2209 29.8794 38.3729 30.044 37.5531 30.2933C36.7465 30.5383 35.9671 30.8656 35.2271 31.2697C34.3796 31.7325 33.5839 32.2962 32.8587 32.9528C32.7077 33.0894 32.5598 33.2301 32.4152 33.3749C31.4025 34.3875 30.584 35.5582 29.9835 36.8287C29.6833 37.4639 29.4375 38.1241 29.2495 38.8021C29.0343 39.5772 28.8944 40.3754 28.8341 41.1859C28.8115 41.49 28.8 41.7956 28.8 42.1026C28.8 43.7156 29.1162 45.3212 29.7395 46.826C30.6739 49.0814 32.2558 51.009 34.2856 52.3652C34.2971 52.3731 34.3086 52.3807 34.3201 52.3883H30.8571C29.5064 52.3883 28.1689 52.1223 26.921 51.6053C25.6731 51.0884 24.5392 50.3307 23.5841 49.3756C22.629 48.4205 21.8713 47.2866 21.3544 46.0387C20.8374 44.7909 20.5714 43.4533 20.5714 42.1026C20.5714 36.6466 22.7388 31.4143 26.5966 27.5563C30.4546 23.6986 35.6869 21.5311 41.1429 21.5311C46.5988 21.5311 51.8312 23.6986 55.6891 27.5563C59.5469 31.4143 61.7143 36.6466 61.7143 42.1026C61.7143 43.4533 61.4483 44.7909 60.9313 46.0387C60.4144 47.2866 59.6567 48.4205 58.7016 49.3756C57.7465 50.3307 56.6126 51.0884 55.3647 51.6053C54.1168 52.1223 52.7793 52.3883 51.4286 52.3883Z" fill="white"/>
</svg>
